<svg width="24" height="24" viewBox="0 0 24 24" fill="none" xmlns="http://www.w3.org/2000/svg">
<g clip-path="url(#clip0_47_543)">
<path d="M17 6.99997H13V8.99997H17C18.65 8.99997 20 10.35 20 12C20 13.65 18.65 15 17 15H13V17H17C19.76 17 22 14.76 22 12C22 9.23997 19.76 6.99997 17 6.99997ZM11 15H7C5.35 15 4 13.65 4 12C4 10.35 5.35 8.99997 7 8.99997H11V6.99997H7C4.24 6.99997 2 9.23997 2 12C2 14.76 4.24 17 7 17H11V15ZM8 11H16V13H8V11Z" fill=" rgb(251 212 91)"/>
</g>
<defs>
<clipPath id="clip0_47_543">
<rect width="24" height="24" fill="white"/>
</clipPath>
</defs>
</svg>
