<svg width="24" height="24" viewBox="0 0 24 24" fill="none" xmlns="http://www.w3.org/2000/svg">
<g clip-path="url(#clip0_47_539)">
<path d="M12 2.00003C8.13 2.00003 5 5.13003 5 9.00003C5 14.25 12 22 12 22C12 22 19 14.25 19 9.00003C19 5.13003 15.87 2.00003 12 2.00003ZM7 9.00003C7 6.24003 9.24 4.00003 12 4.00003C14.76 4.00003 17 6.24003 17 9.00003C17 11.88 14.12 16.19 12 18.88C9.92 16.21 7 11.85 7 9.00003Z" fill="rgb(251 212 91)"/>
<path d="M12 11.5C13.3807 11.5 14.5 10.3807 14.5 9.00003C14.5 7.61932 13.3807 6.50003 12 6.50003C10.6193 6.50003 9.5 7.61932 9.5 9.00003C9.5 10.3807 10.6193 11.5 12 11.5Z" fill="#FFD600"/>
</g>
<defs>
<clipPath id="clip0_47_539">
<rect width="24" height="24" fill="white"/>
</clipPath>
</defs>
</svg>
